<svg width="1280" height="720" viewBox="0 0 1280 720" fill="none" xmlns="http://www.w3.org/2000/svg">
  <defs>
    <linearGradient id="bg" x1="100" y1="90" x2="1180" y2="630" gradientUnits="userSpaceOnUse">
      <stop stop-color="#F472B6"/>
      <stop offset="1" stop-color="#A78BFA"/>
    </linearGradient>
  </defs>
  <rect width="1280" height="720" fill="url(#bg)"/>
  <rect x="140" y="110" width="1000" height="500" rx="28" fill="#111827" fill-opacity="0.28"/>
  <rect x="220" y="190" width="840" height="90" rx="16" fill="white" fill-opacity="0.92"/>
  <rect x="260" y="220" width="360" height="24" rx="8" fill="#CBD5E1"/>
  <rect x="220" y="320" width="560" height="28" rx="10" fill="white" fill-opacity="0.85"/>
  <rect x="220" y="366" width="460" height="24" rx="8" fill="white" fill-opacity="0.65"/>
  <rect x="220" y="430" width="250" height="62" rx="12" fill="#22D3EE"/>
  <text x="345" y="468" text-anchor="middle" font-size="22" fill="#0F172A" font-family="Arial, sans-serif" font-weight="700">Get Started</text>
  <rect x="820" y="320" width="240" height="200" rx="18" fill="white" fill-opacity="0.92"/>
  <rect x="860" y="364" width="160" height="18" rx="6" fill="#CBD5E1"/>
  <rect x="860" y="396" width="130" height="18" rx="6" fill="#CBD5E1"/>
  <rect x="860" y="440" width="160" height="36" rx="10" fill="#F472B6"/>
</svg>
